# xmcd
#
# Track frame offsets: 
#        150
#        18890
#        37915
#        56567
#        82142
#        96762
#        132577
#        146687
#        156127
#        174377
#        191557
#        207660
#        218912
#        232020
#        246900
#        266322
#        287410
#        308537
#
# Disc length: 4410 seconds
#
# Revision: 0
# Processed by: cddbd v1.5.2PL0 Copyright (c) Steve Scherf et al.
# Submitted via: ExactAudioCopy v0.99pb5
#
DISCID=00113812
DTITLE=The Deluxe Blues Band - The Deluxe Blues Band
DYEAR=1988
DGENRE=Blues
TTITLE0=300 Pounds Of Joy
TTITLE1=Dead Cat On The Line
TTITLE2=Louisiana Blues
TTITLE3=Angel Of Mercy
TTITLE4=Down In The Bottom
TTITLE5=Hoochie Coochie Man
TTITLE6=Key To The Highway
TTITLE7=Reach Tree
TTITLE8=Elevator Blues
TTITLE9=All Your Love 
TTITLE10=Rambler's Blues
TTITLE11=Lambpoon
TTITLE12=Leavin' This Town
TTITLE13=Marriage License
TTITLE14=Letter To My Baby
TTITLE15=Do Right Mind
TTITLE16=Can't Hold Out Much Longer
TTITLE17=Neighbour, Neighbour
EXTD=
EXTT0=
EXTT1=
EXTT2=
EXTT3=
EXTT4=
EXTT5=
EXTT6=
EXTT7=
EXTT8=
EXTT9=
EXTT10=
EXTT11=
EXTT12=
EXTT13=
EXTT14=
EXTT15=
EXTT16=
EXTT17=
PLAYORDER=
